SplineFontDB: 3.0
FontName: SarahAnne-Regular
FullName: Sarah Anne Regular
FamilyName: Sarah Anne
Weight: Regular
Copyright: Created by Fil Zembowicz (fil@filosophy.org) with FontForge 2.0 (http://fontforge.sf.net)
UComments: "2013-5-17: Created." 
Version: 0.1
ItalicAngle: 0
UnderlinePosition: -102
UnderlineWidth: 51
Ascent: 819
Descent: 205
LayerCount: 2
Layer: 0 0 "Back"  1
Layer: 1 0 "Fore"  0
XUID: [1021 718 483122345 13344524]
FSType: 0
OS2Version: 0
OS2_WeightWidthSlopeOnly: 0
OS2_UseTypoMetrics: 1
CreationTime: 1368839848
ModificationTime: 1372817430
OS2TypoAscent: 0
OS2TypoAOffset: 1
OS2TypoDescent: 0
OS2TypoDOffset: 1
OS2TypoLinegap: 92
OS2WinAscent: 0
OS2WinAOffset: 1
OS2WinDescent: 0
OS2WinDOffset: 1
HheadAscent: 0
HheadAOffset: 1
HheadDescent: 0
HheadDOffset: 1
MarkAttachClasses: 1
DEI: 91125
LangName: 1033 "" "" "" "" "" "" "" "" "" "" "" "" "" "Copyright (c) 2013, Fil Zembowicz (fil@filosophy.org), with Reserved Font Name 'Sarah Anne'" "http://scripts.sil.org/OFL" 
Encoding: ISO8859-1
UnicodeInterp: none
NameList: AGL For New Fonts
DisplaySize: -72
AntiAlias: 0
FitToEm: 1
WinInfo: 60 12 5
BeginPrivate: 0
EndPrivate
Grid
-1024 -399.360351562 m 0
 2048 -399.360351562 l 0
-1024 567.295898438 m 0
 2048 567.295898438 l 0
  Named: "x-height" 
-194.458007812 1331.20019531 m 0
 -194.458007812 -716.799804688 l 0
EndSplineSet
BeginChars: 256 75

StartChar: o
Encoding: 111 111 0
Width: 514
VWidth: 0
Flags: W
VStem: 345 114<158.625 455.924>
LayerCount: 2
Fore
SplineSet
210 299 m 0
 194 193 225 104 271 102 c 0
 317 100 340 190 345 297 c 0
 350 404 358 459.4609375 312 461.4609375 c 4
 266 463.4609375 227 407 210 299 c 0
72 227 m 0
 72 350 107 535.4609375 287 516.4609375 c 5
 300 529.4609375 272 574.4609375 271 596.4609375 c 4
 270 624.4609375 296 628.4609375 312 627.4609375 c 4
 406 620.4609375 459 459 459 291 c 0
 459 123 360 -24 260 -5 c 0
 157 15 72 59 72 227 c 0
EndSplineSet
EndChar

StartChar: n
Encoding: 110 110 1
Width: 618
VWidth: 0
Flags: W
HStem: 555.9 20G<69.0124 134.016>
VStem: 76.5156 147<37.2341 278.138> 437.071 119.929<5.68553 367.002>
LayerCount: 2
Fore
SplineSet
181.515625 390.900390625 m 1
 255.515625 472.900390625 254 551 367 553 c 0
 513 555 520.071289062 453.200195312 545.071289062 347.200195312 c 1
 562.071289062 241.200195312 555 153 557 79 c 8
 558.189453125 34.9853515625 535 -16 496 -16 c 0
 410 -16 437.071289062 69.3623046875 437.071289062 131.200195312 c 27
 437.071289062 252.688476562 437.515655518 418.899993896 388.515625 438.900390625 c 0
 331.255267691 462.272414089 244.515625 292.900390625 223.515625 218.900390625 c 0
 192.515625 109.900390625 230 19 168 7 c 0
 76 -10 79.953125 48.939453125 76.515625 196.900390625 c 0
 75.03125 260.799804688 75 315 75 402 c 8
 75 470.99609375 30.5091317673 575.900390625 107.515625 575.900390625 c 0
 160.515625 575.900390625 167.515625 472.900390625 181.515625 390.900390625 c 1
EndSplineSet
EndChar

StartChar: r
Encoding: 114 114 2
Width: 481
VWidth: 0
Flags: W
VStem: 99 111<27.0939 308.428>
LayerCount: 2
UndoRedoHistory
Layer: 1
Undoes
EndUndoes
Redoes
EndRedoes
EndUndoRedoHistory
Fore
SplineSet
132.018554688 0 m 0
 89.0650914977 0 99 162.66796875 99 270 c 8
 99 385.977539062 63 579.163085938 106.018554688 567.295898438 c 4
 193.018554688 543.295898438 188.099609375 467.478515625 196.694335938 425 c 1
 215.698242188 451.176757812 259.749023438 481.958007812 307.694335938 497 c 0
 358.694335938 513 424.772755066 504.035577646 449.694335938 449 c 0
 473.694152832 396 332.694152832 441 253 340 c 0
 206.770078328 281.410731868 205.694152832 241 210 138 c 0
 211.926336549 91.9201795203 209.018768311 0 132.018554688 0 c 0
EndSplineSet
EndChar

StartChar: a
Encoding: 97 97 3
Width: 527
VWidth: 0
Flags: W
HStem: -2 111.996<165.406 245.09>
LayerCount: 2
Fore
SplineSet
167.850585938 267.998046875 m 0
 148.349609375 186.704101562 152.240234375 112 193.701171875 109.99609375 c 0
 220.8359375 108.684570312 308.850585938 160.998046875 318.850585938 243.998046875 c 0
 328.850585938 326.998046875 328.850585938 407.998046875 301.850585938 410.998046875 c 0
 274.850585938 413.998046875 188.240234375 353 167.850585938 267.998046875 c 0
61 296 m 0
 91 453 256.985351562 568.259765625 337.850585938 558.998046875 c 0
 455.240234375 545.552734375 423.091796875 248.999023438 428.240234375 179 c 0
 433.06640625 113.413085938 474.791992188 46.001953125 466.821289062 30 c 4
 426.00390625 -51.9443359375 360 43 340 84 c 1
 301 36 227.03983736 -2 146 -2 c 3
 64.7783203125 -2 31 139 61 296 c 0
EndSplineSet
EndChar

StartChar: d
Encoding: 100 100 5
Width: 621
VWidth: 0
Flags: W
LayerCount: 2
UndoRedoHistory
Layer: 1
Undoes
EndUndoes
Redoes
EndRedoes
EndUndoRedoHistory
Fore
SplineSet
424 116 m 1
 339.817382812 46 285 -39 177 17 c 0
 89 63 48.818359375 210.126953125 119 354 c 0
 159 436 214 550 376.014648438 557.8125 c 1
 360.014648438 688.8125 366.350585938 908.1875 456.182617188 784 c 0
 485.71484375 743.172851562 492 394 511.014648438 234.8125 c 0
 521.101975486 150.363061994 568 76 554 40 c 0
 520.208866924 -46.8914850518 443.817382812 36 424 116 c 1
232 319 m 0
 190 235 184 143 225 123 c 0
 266 103 321 136 362 221 c 0
 387 272 400 344 380.182617188 422 c 0
 368.94930619 466.21362125 274 403 232 319 c 0
EndSplineSet
EndChar

StartChar: b
Encoding: 98 98 6
Width: 563
VWidth: 0
Flags: W
LayerCount: 2
UndoRedoHistory
Layer: 1
Undoes
EndUndoes
Redoes
EndRedoes
EndUndoRedoHistory
Fore
SplineSet
96 244 m 0
 87 420 69.076171875 855.901367188 131.927734375 814 c 0
 221.928710938 754 187.927734375 501 199.927734375 460 c 1
 229.927734375 493 267.927734375 576.295898438 395.927734375 567.295898438 c 0
 473.260742188 561.858398438 513.927734375 411.295898438 485.927734375 248.295898438 c 0
 457.927734375 85.2958984375 368.057617188 0 290 0 c 3
 141.87890625 0 104.446289062 78.8291015625 96 244 c 0
215.927734375 288 m 0
 192.927734375 183 229.927734375 119 253.927734375 114 c 0
 277.927734375 109 356.85546875 134.295898438 379.85546875 239.295898438 c 0
 402.85546875 344.295898438 385.465820312 421.1484375 361.927734375 428 c 4
 325.85546875 438.5 238.927734375 393 215.927734375 288 c 0
EndSplineSet
EndChar

StartChar: i
Encoding: 105 105 7
Width: 278
VWidth: 0
Flags: W
HStem: 724 80.2988<94.1209 198.437>
VStem: 75.8662 117.134<198.455 460.812> 88.0029 114.863<732.167 800.246>
LayerCount: 2
Fore
SplineSet
88.0029296875 768 m 0xa0
 88.0029296875 800 105.866210938 804.298828125 146.866210938 804.298828125 c 3
 184.202520343 804.298828125 200.866210938 798.298828125 202.866210938 758.298828125 c 1
 202.866210938 726.298828125 197.002929688 724 156.002929688 724 c 0
 115.002929688 724 88.0029296875 736 88.0029296875 768 c 0xa0
75.8662109375 481.298828125 m 1xc0
 75.8662109375 481.298828125 162.615269446 469.911109169 180.729492188 455.59765625 c 0
 203 438 193 343.569335938 193 237 c 3
 193 144.241210938 224 12 201 4 c 0
 162 -9 108.45613887 11.3027564452 97 55 c 24
 54.78515625 216.018554688 75.8662109375 481.298828125 75.8662109375 481.298828125 c 1xc0
EndSplineSet
EndChar

StartChar: k
Encoding: 107 107 8
Width: 507
VWidth: 0
Flags: W
LayerCount: 2
UndoRedoHistory
Layer: 1
Undoes
EndUndoes
Redoes
EndRedoes
EndUndoRedoHistory
Fore
SplineSet
123 808 m 0
 231 716 167.278320312 476 209.279296875 436 c 1
 235.807617188 461.583007812 302.498046875 576.771484375 357.279296875 567.295898438 c 0
 489.078125 544.500976562 223.685791016 336 211.279296875 254 c 1
 243 166 381.4453125 224.041015625 409.279296875 120 c 0
 444.967773438 -13.404296875 283.217773438 114.475585938 218.217773438 101.475585938 c 0
 192.217773438 96.4755859375 254.593865416 -20.7504300934 152.217773438 0 c 0
 95.159860538 11.564968051 111 148 110 318 c 0
 109.417661937 416.997470772 56.4636150024 864.679142776 123 808 c 0
EndSplineSet
EndChar

StartChar: e
Encoding: 101 101 9
Width: 458
VWidth: 0
Flags: W
VStem: 63.3887 316.389
LayerCount: 2
UndoRedoHistory
Layer: 1
Undoes
EndUndoes
Redoes
EndRedoes
EndUndoRedoHistory
Fore
SplineSet
136.040039062 483 m 0
 191.302734375 567.25 274.77734375 584.75 327.77734375 561.75 c 0
 380.77734375 538.75 409.224609375 378.302734375 343.889648438 293.401367188 c 0
 311.9375 251.879882812 204.5546875 246.5 170.5546875 228.5 c 0
 167.5546875 226.5 141.77734375 121.75 192.77734375 96.75 c 0
 240.77734375 73.75 356.77734375 209.75 379.77734375 143.75 c 0
 399.77734375 84.75 232.77734375 -15.25 161.77734375 0.75 c 1
 98.77734375 4.75 64 73.453125 63.388671875 171.1015625 c 1
 62.388671875 263.1015625 84.9736328125 405.146484375 136.040039062 483 c 0
216.889648438 439.401367188 m 0
 190.978515625 410.9453125 169.76171875 324.452148438 186.889648438 319.401367188 c 0
 204.016601562 314.3515625 268.409179688 326.818359375 288.889648438 359.401367188 c 0
 310.889648438 394.40234375 316.530273438 422.615234375 302.889648438 462.401367188 c 0
 290.889648438 497.40234375 248.588867188 474.213867188 216.889648438 439.401367188 c 0
EndSplineSet
EndChar

StartChar: h
Encoding: 104 104 10
Width: 618
VWidth: 0
Flags: W
HStem: 522.7 20G<322.88 439.38>
VStem: 84 94<392.488 650.031> 90 131.38<98.0286 303.836> 432 125<20.5984 367.318>
LayerCount: 2
Fore
SplineSet
185.379882812 390.700195312 m 1xd0
 245.380126953 492.700012207 266.379882812 540.700195312 379.379882812 542.700195312 c 1
 499.380126953 540.700012207 535.759765625 405.400390625 547.379882812 290.700195312 c 0
 555.294921875 212.5703125 555 153 557 79 c 8
 558.095703125 38.4599609375 528.379882812 0 489.379882812 0 c 0
 403.379882812 0 432 110.086914063 432 186 c 27
 432 277.94921875 441.379882812 387.700195312 383.379882812 416.700195312 c 0
 327.379882812 444.700195312 242.379882812 324.700195312 221.379882812 250.700195312 c 0
 190.379882812 141.700195312 214 12 152 0 c 0
 60 -17 90 75 90 223 c 0xb0
 90 228 84 304 84 391 c 8
 84 557.229492188 21 817 98 817 c 0
 155 817 170 693 178 578 c 0
 185 476 179.379882812 428.700195312 185.379882812 390.700195312 c 1xd0
EndSplineSet
EndChar

StartChar: s
Encoding: 115 115 11
Width: 394
VWidth: 0
Flags: W
LayerCount: 2
Fore
SplineSet
90.0380859375 306.981445312 m 0
 53.037109375 436.982421875 100.532226562 560.490234375 205.532226562 573.490234375 c 0
 230.532226562 576.490234375 342.532226562 513.490234375 331.532226562 421.490234375 c 0
 325.532226562 368.490234375 256.532226562 469.490234375 227.532226562 441.490234375 c 0
 197.532226562 411.490234375 207.038085938 329.981445312 211.038085938 307.981445312 c 0
 232.038085938 177.981445312 323.038085938 169.981445312 264.038085938 75.9814453125 c 0
 241.038085938 38.9814453125 120.532226562 -30.509765625 72.5322265625 15.490234375 c 0
 10.5322265625 75.490234375 146.038085938 69.9814453125 162.038085938 147.981445312 c 0
 172.038085938 193.981445312 110.495117188 235.104492188 90.0380859375 306.981445312 c 0
EndSplineSet
EndChar

StartChar: m
Encoding: 109 109 12
Width: 710
VWidth: 0
Flags: W
VStem: 39 116<13.765 410.654> 312 100<10.6056 360.527>
LayerCount: 2
Fore
SplineSet
259.844726562 567.295898438 m 3
 305.844726562 567.295898438 305.844726562 487.5 351.844726562 491.5 c 0
 399.844726562 495.5 447 575 516 575 c 3
 641 575 606 363 624 236 c 0
 637 149 685 21 630 29 c 0
 534 43 547 156 538 252 c 0
 529 347 505 501 477 473 c 0
 391 387 406 293 412 176 c 0
 417 79 413 0 367 0 c 0
 267 0 314 156 312 253 c 0
 310 347 246 479 224 465 c 0
 146 413 153 312 155 214 c 0
 157 118 175 -8 85 -8 c 3
 14 -8 37.245430933 160.120112177 39 270 c 24
 40.4287109375 359.471679688 39.6393724861 421.167197176 93 493 c 24
 135.475585938 550.178710938 206.844726562 567.295898438 259.844726562 567.295898438 c 3
EndSplineSet
EndChar

StartChar: g
Encoding: 103 103 13
Width: 527
VWidth: 0
Flags: W
HStem: -204.233 345.233<188.369 346.737>
VStem: 361 92.0664<-66.6995 86>
LayerCount: 2
Fore
SplineSet
164 284 m 0
 147 219 156 141 223 141 c 0
 254.064453125 141 328.3984375 154.440429688 347 219 c 0
 364 278 360.012695312 442.2109375 329 444 c 0
 277 447 181 349 164 284 c 0
63.06640625 343 m 0
 97.06640625 474 240.5703125 569.564453125 329 567.295898438 c 0
 445.93359375 564.295898438 450.93359375 425 454 293 c 0
 455.423828125 231.721679688 456.06640625 86 453.06640625 0 c 0
 449.06640625 -104 390.737304688 -204.233398438 302.737304688 -204.233398438 c 0
 220.737304688 -204.233398438 113.045898438 -129.3515625 96.7373046875 -70.2333984375 c 0
 80.7373046875 -12.2333984375 241.784619005 -121.732649519 296.737304688 -102.233398438 c 0
 358.737243652 -80.2335205078 359 -20 361 86 c 1
 310 39 183.950195312 41.0185546875 163.06640625 44 c 0
 79 56 29.06640625 212 63.06640625 343 c 0
EndSplineSet
EndChar

StartChar: exclam
Encoding: 33 33 14
Width: 337
VWidth: 0
Flags: W
HStem: 5 85<133.682 223.193>
VStem: 84 100<361.086 776.55> 123 111<17.7318 79.0781>
LayerCount: 2
Fore
SplineSet
84 524 m 0xc0
 72 681 102 815 137 818 c 0
 235 826 172 665 184 508 c 0
 196 351 225 246 164 233 c 0
 130 226 96 367 84 524 c 0xc0
123 21 m 4xa0
 116 47 133 81 166 90 c 4
 199 99 227 98 234 72 c 4
 241 46 234 26 190 5 c 4
 159 -10 130 -5 123 21 c 4xa0
EndSplineSet
Validated: 33
EndChar

StartChar: v
Encoding: 118 118 15
Width: 465
VWidth: 0
Flags: W
HStem: 561 20G<337.5 410.5>
LayerCount: 2
Fore
SplineSet
203 146 m 4
 237 106 229 293 251 401 c 4
 269 490 289 581 386 581 c 4
 435 581 472 483 393 500 c 5
 348 449 338 356 334 301 c 4
 325 177 343 7 234 0 c 4
 167 -4 99 90 77 181 c 28
 42 325 11 584 97 561 c 4
 168 542 107 259 203 146 c 4
EndSplineSet
Validated: 33
EndChar

StartChar: t
Encoding: 116 116 16
Width: 500
VWidth: 0
Flags: W
VStem: 179.866 100<195.747 629.745>
LayerCount: 2
UndoRedoHistory
Layer: 1
Undoes
EndUndoes
Redoes
EndRedoes
EndUndoRedoHistory
Fore
SplineSet
44 441 m 0
 23.0654296875 484.206054688 127 482 245 497 c 0
 327 507 451.639648438 524.645507812 446 501 c 0
 430.223632812 434.85546875 337.866210938 391 218.866210938 391 c 0
 99.8662109375 391 71.1337890625 385 44 441 c 0
179.866210938 365 m 0
 168.866210938 595 164.521484375 771.376953125 260.7421875 818.4375 c 0
 300.483398438 837.875 268.866210938 691 279.866210938 461 c 0
 290.866210938 231 310 0 280 0 c 0
 227 0 197 53 190 133 c 0
 183 217 181.866210938 313 179.866210938 365 c 0
EndSplineSet
EndChar

StartChar: c
Encoding: 99 99 17
Width: 484
VWidth: 0
Flags: W
LayerCount: 2
Fore
SplineSet
77.19921875 290.204101562 m 4
 130.247070312 497.586914062 217.19921875 567.295898438 272.19921875 567.295898438 c 5
 345.013671875 569.030273438 416.94921875 474.811523438 393.228515625 439 c 5
 378.228515625 416 325.204101562 462.102539062 284.19921875 452.204101562 c 4
 226.19921875 438.204101562 190.19921875 346.204101562 174.19921875 275.204101562 c 4
 149.577148438 165.944335938 189.924804688 115.40234375 230.19921875 100.204101562 c 4
 283.19921875 80.2041015625 374.198242188 180.204101562 381.19921875 133.204101562 c 4
 392.99609375 53.9970703125 289.19140625 0.728515625 262.228515625 0 c 4
 121.228515625 -3 33.3330078125 118.713867188 77.19921875 290.204101562 c 4
EndSplineSet
EndChar

StartChar: l
Encoding: 108 108 18
Width: 303
VWidth: 0
Flags: W
VStem: 88.293 113.707<143.901 638.463>
LayerCount: 2
UndoRedoHistory
Layer: 1
Undoes
EndUndoes
Redoes
EndRedoes
EndUndoRedoHistory
Fore
SplineSet
88.29296875 424.384765625 m 0
 94.29296875 668.384765625 96.3134092014 821.645579323 170.29296875 823.384765625 c 0
 239 825 199 599 202 355 c 0
 206 25 263 7 171.29296875 0 c 0
 112.329051446 -4.50071728966 80.29296875 94.384765625 88.29296875 424.384765625 c 0
EndSplineSet
EndChar

StartChar: y
Encoding: 121 121 19
Width: 567
VWidth: 0
Flags: W
HStem: -239 139<294.993 394.69>
VStem: 358 132.074<-54 272>
LayerCount: 2
UndoRedoHistory
Layer: 1
Undoes
EndUndoes
Redoes
EndRedoes
EndUndoRedoHistory
Fore
SplineSet
117 511 m 4
 249.040039062 441.096679688 103.170898438 207.788085938 239 157 c 4
 289.782226562 138.01171875 359.497070312 188.737304688 358 272 c 4
 356.106445312 377.291015625 316.868164062 530.224609375 407 563 c 4
 462 583 443.931640625 353.235351562 464.07421875 210 c 4
 482.07421875 82 487.791992188 50.994140625 490.07421875 -54 c 4
 492.07421875 -146 463.07421875 -220 346.07421875 -239 c 4
 269.07421875 -252 99.0380859375 -115.086914062 146.07421875 -100 c 4
 252.07421875 -66 317 -194 379 -112 c 4
 426.00390625 -49.833984375 388.07421875 15 374.07421875 107 c 5
 325 50 282.07421875 35 213.07421875 52 c 5
 111.555664062 76.06640625 72.0927734375 195.7421875 75 282 c 4
 78 371 66 538 117 511 c 4
EndSplineSet
EndChar

StartChar: u
Encoding: 117 117 20
Width: 663
VWidth: 0
Flags: W
VStem: 421.748 104<205.692 516.62>
LayerCount: 2
UndoRedoHistory
Layer: 1
Undoes
EndUndoes
Redoes
EndRedoes
EndUndoRedoHistory
Fore
SplineSet
254.08984375 137.747070312 m 0
 322.08984375 137.747070312 410.748046875 175.041015625 421.748046875 261.041015625 c 4
 434.748046875 371.041015625 379.13671875 602.448242188 469.748046875 561.041015625 c 0
 537.49609375 530.08203125 520.489257812 341.940429688 525.748046875 249.041015625 c 0
 531.748046875 143.040039062 573.17578125 58.74609375 561.08984375 25.7470703125 c 0
 539.125976562 -34.2236328125 447.09375 44.4931640625 445.08984375 113.747070312 c 1
 405.08984375 57.7470703125 264.08984375 -13.2529296875 205.08984375 10.7470703125 c 0
 94.08984375 55.7470703125 96.30859375 127.354492188 88.08984375 220.747070312 c 0
 77.08984375 345.747070312 69.08984375 587.747070312 134.08984375 544.747070312 c 0
 246.759765625 470.211914062 138.08984375 137.747070312 254.08984375 137.747070312 c 0
EndSplineSet
EndChar

StartChar: p
Encoding: 112 112 21
Width: 550
VWidth: 0
Flags: W
LayerCount: 2
UndoRedoHistory
Layer: 1
Undoes
EndUndoes
Redoes
EndRedoes
EndUndoRedoHistory
Fore
SplineSet
125 504 m 0
 172 547 139.544921875 485.888671875 192.544921875 499.888671875 c 0
 216.544921875 506.888671875 232.030273438 561.295898438 358.030273438 567.295898438 c 0
 416.030273438 570.295898438 510.921875 420.467773438 466.544921875 223.888671875 c 0
 422.231445312 27.5869140625 273 17 261 16 c 0
 173 11 244.096679688 -118.227539062 188.544921875 -182.111328125 c 0
 68.5458984375 -320.111328125 127.370117188 20.3154296875 116.370117188 210.315429688 c 4
 108.370117188 346.315429688 74 456 125 504 c 0
218.544921875 323.888671875 m 0
 206.544921875 198.888671875 218 135 241 142 c 0
 253 146 335.168945312 114.309570312 365.168945312 232.309570312 c 0
 395.168945312 350.309570312 361.544921875 441.888671875 338.544921875 447.888671875 c 0
 315.544921875 453.888671875 230.544921875 445.888671875 218.544921875 323.888671875 c 0
EndSplineSet
EndChar

StartChar: w
Encoding: 119 119 22
Width: 751
VWidth: 0
Flags: W
VStem: 555 129<115.084 450.812>
LayerCount: 2
Fore
SplineSet
152 567 m 0
 271 469 156.9609375 178 283.9609375 98 c 4
 297.9609375 89 338 177 328 287 c 0
 318 392 295 493 379 498 c 0
 490 504 408 135 547 111 c 0
 582 105 577 211 555 356 c 0
 537 475 486.9609375 600 579.9609375 578 c 0
 667.9609375 558 682 360 684 223 c 0
 686 88 686 18 594 0 c 0
 457 -27 447.960998535 58 415.9609375 88 c 1
 381.960998535 52 385.960998535 -22 268 -6 c 0
 152.898902312 9.61208862141 121.139433964 125.699175331 98 240 c 24
 72.3525390625 366.6875 51 651 152 567 c 0
EndSplineSet
EndChar

StartChar: H
Encoding: 72 72 23
Width: 773
VWidth: 0
Flags: W
HStem: 16 814<514.647 683>
LayerCount: 2
Fore
SplineSet
235 404 m 0
 262 477 498 497 523 504 c 0
 603.888671875 526.6484375 502.358398438 16 699 16 c 0
 773.840820312 16 730.963867188 95.70703125 699 227 c 0
 681.848632812 297.450195312 675.44921875 409.8125 675 472 c 8
 674.719726562 510.737304688 695 528.897460938 695 569.295898438 c 0
 695 602.295898438 664.735351562 608.025390625 651 636 c 24
 614.663085938 710.008789062 683 830 567 830 c 0
 514.647460938 830 473.77734375 777.357421875 511 708 c 0
 579 581.295898438 363 606 241 562 c 0
 134.3046875 523.51953125 300 822 120 818 c 0
 27.4853515625 815.944335938 90.396484375 670.334960938 100 544 c 0
 102.021484375 517.405273438 93.7392578125 466.74609375 92 446 c 0
 88.4482421875 403.627929688 106.578125 376.6875 113 329 c 8
 130.971679688 195.548828125 74.25390625 2.7197265625 235 6 c 0
 284 7 251 114 232 220 c 0
 217.731445312 299.60546875 210.701171875 338.303710938 235 404 c 0
EndSplineSet
EndChar

StartChar: E
Encoding: 69 69 24
Width: 569
VWidth: 0
Flags: W
LayerCount: 2
Fore
SplineSet
381.9609375 820 m 0
 483.9609375 825 507.921875 728 473.9609375 692 c 0
 438.96484375 654.90234375 399.960998535 728 350 712 c 0
 269.517811899 686.225595017 182.9609375 613 225.9609375 554 c 9
 318.78125 536.059570312 439.9609375 610 463.9609375 508 c 0
 482.9609375 425 85.2790517002 172.563023434 257.9609375 128 c 0
 319.960998535 112 381.9609375 178 483.9609375 204 c 0
 605.671875 235.024414062 371.9609375 -48 205.9609375 14 c 0
 -40.6201171875 106.096679688 181.960998535 344 273.9609375 448 c 0
 285.887262941 461.481942051 91 428 93 559 c 0
 95 670 226.9609375 812 381.9609375 820 c 0
EndSplineSet
EndChar

StartChar: f
Encoding: 102 102 25
Width: 531
VWidth: 0
Flags: W
VStem: 172 110<152.373 662.066>
LayerCount: 2
Fore
SplineSet
172 432 m 0
 172 663 194.623046875 806.5703125 254.80078125 816.599609375 c 0
 350.801757812 832.598632812 444.801757812 758.133789062 462.80078125 708.134765625 c 0
 495.845703125 616.341796875 366.80078125 740.134765625 318.80078125 714.134765625 c 0
 254.80078125 680.134765625 282 446 282 386 c 0
 282 155 312.80078125 0 222.80078125 0 c 0
 186.80078125 0 172 201 172 432 c 0
76.84765625 362.400390625 m 0
 49.84765625 441.400390625 154.84765625 458.400390625 265.84765625 498.400390625 c 0
 382.84765625 540.400390625 421.154296875 501.295898438 444 461 c 0
 462.75 427.931640625 383.19921875 442.865234375 274.19921875 398.865234375 c 0
 165.19921875 354.865234375 91.84765625 318.400390625 76.84765625 362.400390625 c 0
EndSplineSet
EndChar

StartChar: j
Encoding: 106 106 26
Width: 389
VWidth: 0
Flags: W
HStem: 526 20G<177.665 276.571> 722 102<168.528 293.345>
VStem: 160 144<733.806 814.277> 178 138<419.324 525.807>
LayerCount: 2
Fore
SplineSet
160 774 m 4xe0
 164 810 185 831 238 824 c 5
 290 809 309 822 304 782 c 5
 300 746 287 715 234 722 c 4
 181 729 156 738 160 774 c 4xe0
178 546 m 1xd0
 178 546 314 541 316 518 c 0xd0
 326 410 304 320 304 193 c 27xe0
 304 34 392 -166 189 -199 c 0
 39 -224 26 -46 48 -27 c 0
 109 26 114 -111 167 -111 c 0
 301 -111 178 546 178 546 c 1xd0
EndSplineSet
Validated: 33
EndChar

StartChar: z
Encoding: 122 122 27
Width: 564
VWidth: 0
Flags: W
LayerCount: 2
Fore
SplineSet
299.286132812 542 m 0
 439.286132812 452 202.17578125 172.890625 219.286132812 96 c 1
 277.286132812 66 479.286132812 111 497.286132812 -30 c 0
 530.286132812 -280 215.848632812 -450.038085938 120.84375 -367.702148438 c 0
 54.6875 -310.369140625 140.84375 -375.702148438 286.84375 -265.702148438 c 0
 352.84375 -215.702148438 404 -137.036132812 401 -72.0361328125 c 8
 394.862304688 60.939453125 50.572265625 -64.962890625 79.2861328125 42 c 0
 112.362304688 165.215820312 239.376953125 282.954101562 231 453.963867188 c 24
 227.580078125 523.78125 14.1572265625 441.73046875 57 496.963867188 c 24
 115.905273438 572.90625 235.64453125 582.912109375 299.286132812 542 c 0
EndSplineSet
EndChar

StartChar: period
Encoding: 46 46 28
Width: 196
VWidth: 0
Flags: W
HStem: 2 89<67.9146 166.609>
VStem: 55 121<14.2816 77.5723>
LayerCount: 2
Fore
SplineSet
55 37 m 4
 55 64 82 91 116 91 c 4
 150 91 176 81 176 54 c 4
 176 27 163 10 114 2 c 4
 81 -3 55 10 55 37 c 4
EndSplineSet
Validated: 33
EndChar

StartChar: x
Encoding: 120 120 29
Width: 494
VWidth: 0
Flags: HW
LayerCount: 2
UndoRedoHistory
Layer: 1
Undoes
EndUndoes
Redoes
EndRedoes
EndUndoRedoHistory
Fore
SplineSet
112.418945312 5 m 1
 178.418945312 8 226.559570312 165 269.559570312 277 c 0
 289.559570312 329 336.418945312 435 394.418945312 471 c 1
 464.418945312 431 458.418945312 537 411.418945312 551 c 0
 319.418945312 579 261.559570312 477 218.559570312 397 c 0
 191.559570312 347 166.559570312 275 145.559570312 223 c 0
 137.559570312 203 87.4189453125 104 81.4189453125 54 c 0
 76.4189453125 13 105.418945312 6 112.418945312 5 c 1
413.418945312 20 m 1
 437.418945312 29 356.418945312 137 329.418945312 192 c 0
 298.80859375 254.353515625 203.977539062 543.001953125 114.418945312 554 c 0
 57.4189453125 561 181.1640625 271.704101562 270.418945312 112.299804688 c 24
 302.848632812 54.3828125 341.418945312 -3 413.418945312 20 c 1
EndSplineSet
EndChar

StartChar: q
Encoding: 113 113 30
Width: 544
VWidth: 0
Flags: W
HStem: -202 105<327.524 463.493>
VStem: 301.176 95.8486<-93.9425 74>
LayerCount: 2
UndoRedoHistory
Layer: 1
Undoes
EndUndoes
Redoes
EndRedoes
EndUndoRedoHistory
Fore
SplineSet
139.1875 257.067382812 m 0
 126.551757812 191.080078125 146.1875 131.067382812 177.1875 129.067382812 c 0
 208.1875 127.067382812 283.813476562 159.225585938 297.1875 225.067382812 c 0
 310.188476562 289.067382812 314.17578125 438 283.17578125 440 c 0
 252.17578125 442 157.188476562 351.06640625 139.1875 257.067382812 c 0
53 323 m 0
 87 454 214.58984375 569.3515625 303.024414062 567.295898438 c 0
 389.048828125 565.295898438 391.1875 491.067382812 399.1875 389.067382812 c 0
 403.98046875 327.959960938 400.024414062 89 397.024414062 3 c 0
 393.024414062 -101 401.024414062 -97 424.024414062 -97 c 0
 478.024414062 -97 573.024414062 -10 540.024414062 -93 c 0
 502.633789062 -187.041992188 413.024414062 -202 372.024414062 -202 c 3
 283.024414062 -202 301.17578125 -34 301.17578125 74 c 1
 270.201171875 32 174.17578125 29 153.17578125 31 c 0
 63.17578125 41 19 192 53 323 c 0
EndSplineSet
EndChar

StartChar: plus
Encoding: 43 43 31
Width: 629
VWidth: 0
Flags: HW
LayerCount: 2
Fore
SplineSet
75 200 m 0
 83 153 190 217 328 240 c 0
 466 263 596 237 583 274 c 0
 576 293 474 321 327 301 c 0
 188 282 61 284 75 200 c 0
361 -31 m 1
 386 -36 353 69 350 82 c 0
 320 240 452 486 387 526 c 0
 302 579 246 291 238 124 c 24
 234 47 288 -13 361 -31 c 1
EndSplineSet
EndChar

StartChar: hyphen
Encoding: 45 45 32
Width: 617
VWidth: 0
Flags: W
HStem: 211.064 90.0479<82.8045 508.754>
LayerCount: 2
Fore
SplineSet
54.96875 226.963867188 m 0
 49.8125 311.966796875 175.91015625 296.723632812 316.133789062 301.112304688 c 0
 464.41796875 305.662109375 562.939453125 267.169921875 567.91796875 247.54296875 c 0
 576.985351562 209.387695312 441.952148438 219.536132812 302.3046875 211.064453125 c 0
 162.658203125 202.591796875 58.0205078125 179.385742188 54.96875 226.963867188 c 0
EndSplineSet
EndChar

StartChar: comma
Encoding: 44 44 33
Width: 350
VWidth: 0
Flags: W
VStem: 55 71<-127.637 60.6874>
LayerCount: 2
Fore
SplineSet
55 -50 m 5
 48 11 47 93 106 61 c 5
 151 55 134 6 126 -57 c 4
 118 -120 131 -147 103 -143 c 4
 75 -139 60 -110 55 -50 c 5
EndSplineSet
Validated: 33
EndChar

StartChar: quotesingle
Encoding: 39 39 34
Width: 155
VWidth: 0
Flags: W
HStem: 598 236<61.3296 115.198>
VStem: 61 86<636.888 815.75>
LayerCount: 2
Fore
SplineSet
61 721 m 0
 61 799 28 834 68 834 c 3
 115 834 147 817 147 739 c 3
 147 661 111 598 88 598 c 0
 48 598 61 643 61 721 c 0
EndSplineSet
Validated: 33
EndChar

StartChar: question
Encoding: 63 63 35
Width: 380
VWidth: 0
Flags: W
HStem: -2 89<140.751 236.73> 717 96<102.575 252.269>
VStem: 128 119<10.8673 73.9294> 220 127<572.078 695.326>
LayerCount: 2
Fore
SplineSet
109 446 m 0xd0
 141 551 220 556 220 623 c 3
 220 644 210 717 159 717 c 3
 59 717 21 643 10 674 c 0
 -3 710 68 813 199 813 c 0
 305 813 347 735 347 610 c 3
 347 483 251 489 213 403 c 0
 150 259 223 239 162 231 c 0
 127 226 64 296 109 446 c 0xd0
128 30 m 0xe0
 127 57 151 86 185 87 c 0
 219 88 246 81 247 54 c 0
 248 27 237 8 189 -2 c 0
 156 -9 129 3 128 30 c 0xe0
EndSplineSet
Validated: 33
EndChar

StartChar: W
Encoding: 87 87 36
Width: 966
VWidth: 0
Flags: HW
VStem: 746 102<595.518 742.564>
LayerCount: 2
Fore
SplineSet
448 688 m 0
 376.468608077 731.165495126 441 515 442 385 c 0
 444 197 377 74 340 96 c 0
 224 163 226 581 191 774 c 0
 185 808 138 820 104 825 c 0
 33 836 88 527 116 348 c 0
 144 169 207 -53 376 -1 c 0
 482 32 500 130 521 219 c 1
 550 140 614 27 707 39 c 0
 882 62 834.843599902 492.416996806 844 790 c 24
 845.399414062 835.4765625 737 836 731 819 c 0
 695 717 728 654 730 538 c 0
 733 352 745.044921875 176.325195312 696 166 c 0
 658 158 607.15930217 234.866230492 574 358 c 0
 544.280014672 468.362208605 564 618 448 688 c 0
EndSplineSet
EndChar

StartChar: I
Encoding: 73 73 37
Width: 294
VWidth: 0
Flags: W
HStem: 801.354 20G<160.27 186.814>
VStem: 103.494 100<133.118 668.464>
LayerCount: 2
Fore
SplineSet
103.494140625 399.354492188 m 7
 103.494140625 651.385742188 93.494140625 671.354492188 81.494140625 759.354492188 c 4
 75.208984375 805.450195312 153.045898438 821.354492188 167.494140625 821.354492188 c 7
 206.134765625 821.354492188 203.494140625 633.194335938 203.494140625 401.354492188 c 7
 203.494140625 169.514648438 207.494140625 55.3544921875 225.494140625 19.3544921875 c 4
 231.889648438 6.5634765625 160.280273438 -26 133.494140625 23.3544921875 c 4
 97.310546875 90.0263671875 103.494140625 253.322265625 103.494140625 399.354492188 c 7
EndSplineSet
EndChar

StartChar: S
Encoding: 83 83 38
Width: 537
VWidth: 0
Flags: W
LayerCount: 2
Fore
SplineSet
343.9609375 298 m 0
 205.033203125 500.077148438 104.59375 640.143554688 149.9609375 746 c 0
 173.9609375 802 257.527501779 832.34895493 303.960998535 822 c 0
 397.649503151 801.118994271 483.453265869 684.903924226 435.9609375 624 c 0
 395.9609375 572.704101562 303.960998535 752 269.9609375 722 c 0
 198.085881443 658.580946737 381.053157809 406.208222055 409.9609375 356 c 0
 523.960998535 158 489.765625 7.66015625 349.9609375 0 c 0
 203.9609375 -8 131.9609375 28 87.9609375 114 c 0
 43.5947265625 200.715820312 73.9609985352 218 121.9609375 240 c 0
 167.414168611 260.832757416 134.870033915 175.835423863 193.9609375 128 c 0
 235.960998535 94 256.62890625 85.7919921875 323.9609375 90 c 0
 419.9609375 96 387.9609375 234 343.9609375 298 c 0
EndSplineSet
EndChar

StartChar: F
Encoding: 70 70 39
Width: 605
VWidth: 0
Flags: W
VStem: 146 107<42.6789 250.492>
LayerCount: 2
Fore
SplineSet
127 288 m 0
 171 362 315 406 433 423 c 0
 507.200195312 433.689453125 537.504882812 414.54296875 533 374 c 0
 531 356 448.71875 340.282226562 394 321 c 0
 289 284 80.685546875 210.107421875 127 288 c 0
82 682 m 0
 109 749 553.641601562 904.9375 548 778 c 0
 544 688 457.653320312 723.319335938 393 710 c 24
 273.724609375 685.427734375 54.7890625 614.475585938 82 682 c 0
143 796 m 0
 241.963867188 796 214.627929688 661.416015625 232 567.295898438 c 24
 262.689453125 401.018554688 263.211914062 304.076171875 265 135 c 24
 265.567382812 81.310546875 317 0 238 0 c 0
 165.442382812 0 158 113.46875 158 185 c 0
 158 298 149.859375 303.262695312 148 379 c 24
 144.008789062 541.592773438 32 796 143 796 c 0
EndSplineSet
EndChar

StartChar: G
Encoding: 71 71 40
Width: 630
VWidth: 0
Flags: W
HStem: 8 122<257.636 365.193> 708 106<252.185 334.363>
VStem: 57.9609 121.901<236.192 577.043> 388.484 95<152.477 352.487>
LayerCount: 2
Fore
SplineSet
303.26953125 377.616210938 m 1
 351.862304688 276 390.352539062 363.876953125 485.862304688 388 c 1
 580.056640625 415.958984375 663.862304688 398 615.862304688 470 c 0
 603.001953125 489.291015625 556.155273438 496.486328125 461.9609375 468.528320312 c 0
 367.765625 440.5703125 296.671875 399.841796875 303.26953125 377.616210938 c 1
413.484375 442.83984375 m 1
 349.484375 350.840820312 388.484375 434.334960938 388.484375 322.240234375 c 0
 388.484375 122.416992188 353.9609375 130 321.9609375 130 c 0
 264.552734375 130 179.862304688 178.176757812 179.862304688 378 c 0
 179.862304688 577.82421875 234.552734375 708 291.9609375 708 c 0
 317.165039062 708 325.862304688 696 369.862304688 654 c 1
 537.532226562 633.241210938 381.960998535 814 283.862304688 814 c 0
 141.862304688 814 57.9609375 620.880859375 57.9609375 378 c 0
 57.9609375 135.120117188 229.247070312 4.5849609375 331.862304688 8 c 0
 391.9609375 10 485.960998535 60 483.484375 266.83984375 c 0
 482.155783294 377.799663441 467.484375 462.840820312 413.484375 442.83984375 c 1
EndSplineSet
EndChar

StartChar: two
Encoding: 50 50 41
Width: 696
VWidth: 0
Flags: W
HStem: 796 20G<192.936 300.953>
VStem: 104.927 342.54<554.462 726.7>
LayerCount: 2
Fore
SplineSet
273.92578125 697.630859375 m 0
 235.962890625 725.44921875 166.306640625 639.299804688 138.5859375 646.900390625 c 0
 101.39453125 657.096679688 104.926757812 693.125976562 104.926757812 726.700195312 c 27
 104.926757812 783.762695312 160.165039062 816 225.706054688 816 c 3
 376.19921875 816 447.466796875 685.959960938 447.466796875 554.461914062 c 27
 447.466796875 375.407226562 343.225585938 272.030273438 302.926757812 116.80078125 c 1
 394.705078125 104.831054688 555.084960938 249.23046875 641.506835938 247.900390625 c 0
 669.685546875 247.466796875 662.646484375 171.439453125 630.325195312 146.630859375 c 24
 521.915039062 63.41796875 410.545898438 15.5302734375 311.544921875 -5.369140625 c 0
 256.49609375 -16.9912109375 177.094726562 -13.2265625 172.24609375 23.7001953125 c 0
 157.10546875 139.030273438 225.162109375 217.470703125 277.186523438 342.900390625 c 0
 327.385742188 463.930664062 382.825195312 617.831054688 273.92578125 697.630859375 c 0
EndSplineSet
EndChar

StartChar: nine
Encoding: 57 57 42
Width: 620
VWidth: 0
Flags: W
LayerCount: 2
Fore
SplineSet
191.178710938 654.923828125 m 0
 225.9375 706.051757812 294.903320312 708.599609375 315.901367188 694.32421875 c 0
 336.900390625 680.047851562 334.743164062 657.727539062 299.983398438 606.599609375 c 0
 265.224609375 555.47265625 194.177734375 536.647460938 173.178710938 550.923828125 c 0
 152.1796875 565.200195312 156.419921875 603.796875 191.178710938 654.923828125 c 0
311.901367188 818.32421875 m 27
 158.59375 818.32421875 57.1787109375 697.83203125 57.1787109375 518.923828125 c 3
 57.1787109375 457.244140625 130.834960938 422.159179688 191.178710938 434.923828125 c 0
 295.178710938 456.923828125 301.983215332 498.600036621 347.901367188 502.32421875 c 1
 357.901367188 400.32421875 349.983215332 404.600036621 357.983398438 266.599609375 c 0
 362.764305669 184.130591865 381.105429774 85.2724330494 445.983398438 -5.400390625 c 24
 465.876953125 -33.203125 535.780273438 2.5126953125 523.983398438 34.599609375 c 0
 473.983398438 170.599609375 473.983215332 184.600036621 463.983398438 314.599609375 c 0
 451.149994661 481.436365045 457.901367188 586.32421875 463.901367188 776.32421875 c 1
 454.690429688 809.421875 409.015727261 763.174198203 375.901367188 772.32421875 c 24
 346.2734375 780.510742188 342.639648438 818.32421875 311.901367188 818.32421875 c 27
EndSplineSet
EndChar

StartChar: zero
Encoding: 48 48 43
Width: 569
VWidth: 0
Flags: W
HStem: -2.06445 127.596<287.107 365.6>
LayerCount: 2
Fore
SplineSet
82.6748046875 367.42578125 m 0
 54.3291015625 558.821289062 80.5595703125 817.9453125 178.340820312 819.48046875 c 0
 324.083984375 821.768554688 470.693359375 488.518554688 497.266601562 289.833007812 c 0
 525.131835938 81.50390625 432.259765625 -0.2412109375 319.483398438 -2.064453125 c 0
 221.580078125 -3.6474609375 113.463867188 159.533203125 82.6748046875 367.42578125 c 0
187.19921875 360.134765625 m 0
 215.543945312 208.842773438 293.60546875 124.530273438 323.904296875 125.53125 c 0
 387.482421875 127.631835938 396.931640625 208.744140625 375.483398438 335.631835938 c 0
 354.224609375 461.404296875 276.083984375 649.465820312 213.483398438 649.631835938 c 0
 162.083984375 649.768554688 163.504882812 486.599609375 187.19921875 360.134765625 c 0
EndSplineSet
EndChar

StartChar: six
Encoding: 54 54 44
Width: 748
VWidth: 0
Flags: W
HStem: 0 119.973<294.86 507.944>
VStem: 434.514 100<179.995 340.514>
LayerCount: 2
Fore
SplineSet
534.513671875 284.5625 m 0
 537.799804688 324.65625 578.100585938 377.443359375 595.706054688 376 c 0
 625.60546875 373.548828125 636.977539062 316.4296875 623.08984375 269.407226562 c 0
 612.770507812 234.466796875 560.81640625 170.4375 544.341796875 176.809570312 c 0
 527.868164062 183.181640625 531.538085938 248.251953125 534.513671875 284.5625 c 0
383.111328125 119.97265625 m 0
 185.762695312 119.97265625 178.19581284 350.57927729 205.706054688 496 c 0
 228.513671875 616.56237793 261.706054688 694 285.706054688 784 c 0
 298.006835938 830.127929688 181.277846201 820.261949819 159.706054688 776 c 24
 84.8349609375 622.375976562 72.513671875 474.5625 72.513671875 346.5625 c 3
 72.513671875 168.952148438 182.80078125 0 417.706054688 0 c 0
 595.706054688 0 697.706054688 168 711.706054688 252 c 0
 726.245117188 327.399414062 697.462784927 447.999998294 615.706054688 476 c 1
 533.526367188 504.762695312 446.657226562 417.329101562 434.513671875 332.5625 c 0
 423.936523438 258.727539062 458.951171875 119.97265625 383.111328125 119.97265625 c 0
EndSplineSet
EndChar

StartChar: seven
Encoding: 55 55 45
Width: 493
VWidth: 0
Flags: W
VStem: 310.891 100<118.687 652.171>
LayerCount: 2
Fore
SplineSet
314 706 m 5
 262.532226562 690.630859375 161.186477206 650.435159947 77.7060546875 638 c 4
 24 630 -26.2412109375 696.555664062 0 710 c 4
 28.3251953125 724.512695312 81.1928692056 731.874289223 116 742 c 4
 226 774 385.269953703 846.042580092 406.5 805.5 c 5
 432.293945312 765 420.15625 614.551757812 410.890625 382.896484375 c 4
 401.624023438 151.2421875 401.05859375 37.013671875 417.60546875 0.3232421875 c 4
 423.484375 -12.7138671875 350.630859375 -42.388671875 325.838867188 7.9970703125 c 4
 292.348632812 76.0615234375 305.053710938 238.979492188 310.890625 384.895507812 c 4
 320.309570312 620.357421875 321.930664062 630.424804688 314 706 c 5
EndSplineSet
EndChar

StartChar: three
Encoding: 51 51 46
Width: 582
VWidth: 0
Flags: W
HStem: 725.22 90.7803<78.4213 261.035>
LayerCount: 2
Fore
SplineSet
290 470 m 4
 308 542 400.600585938 578.471679688 400.600585938 674.594726562 c 4
 400.600585938 745.188476562 309.811523438 816 173 816 c 4
 113.41796875 816 63.2001953125 798.693359375 63.2001953125 768.060546875 c 4
 63.2001953125 750.036132812 59.9892578125 730.694335938 93.80078125 725.219726562 c 4
 119 721.139648438 187.708444434 753.431200005 222 738 c 4
 302 702 265.19921875 625.33984375 231 557 c 4
 196.107421875 487.275390625 118.3828125 440.817382812 143 374 c 4
 157 336 249.463867188 355.857421875 300 351 c 4
 398 341.580078125 344 254 296 210 c 4
 191.247070312 113.9765625 35.185546875 124.981445312 46 -12 c 4
 49 -50 288.782226562 44.8046875 358 116 c 4
 463 224 511.629368712 310.304207464 452.9999865 398.999988109 c 4
 414 458 272.411132812 399.64453125 290 470 c 4
EndSplineSet
EndChar

StartChar: eight
Encoding: 56 56 47
Width: 668
VWidth: 0
Flags: W
LayerCount: 2
Fore
SplineSet
601.983398438 326.599609375 m 0
 602.108398438 126.76171875 383.983398438 -31.3994140625 243.983398438 32.599609375 c 0
 154.930664062 73.3095703125 119.983398438 138.600585938 137.983398438 216.599609375 c 0
 160.60546875 314.627929688 261.440429688 336.258789062 316.3203125 406.36328125 c 0
 328.337890625 421.71484375 74.400390625 399.990234375 76.640625 539.138671875 c 0
 78.8798828125 657.04296875 242.400390625 801.501953125 416 810 c 0
 530.240234375 815.310546875 545.919921875 718.55078125 545.919921875 650.669921875 c 3
 545.919921875 637.934570312 505.560546875 487.30859375 449.600585938 444.602539062 c 1
 519.983215332 444.600036621 601.88671875 481.06640625 601.983398438 326.599609375 c 0
451.939453125 351.25 m 0
 356.26953125 316.059570312 214.022186624 225.757550349 256.668945312 156.569335938 c 0
 282.3046875 114.979042053 359.430664062 101.422851562 444.204101562 200.907226562 c 0
 493.4296875 258.673828125 522.7421875 377.290039062 451.939453125 351.25 c 0
394.3046875 554.979492188 m 0
 434.170898438 597.842773438 455.653320312 690.631835938 410.3046875 698.979492188 c 0
 315.880859375 716.359375 136.129882812 566.248046875 218.3046875 520.979492188 c 0
 242.95703125 507.3984375 332.625976562 488.662109375 394.3046875 554.979492188 c 0
EndSplineSet
EndChar

StartChar: five
Encoding: 53 53 48
Width: 582
VWidth: 0
Flags: W
LayerCount: 2
Fore
SplineSet
106 22.599609375 m 0
 94.3699276545 -43.8583018066 402.095703125 21.4775390625 473.9609375 90 c 0
 559.9609375 172 582.291789631 380.291967436 491.733398438 436 c 0
 429.960998535 474 281.137235244 421.118898745 241.733398438 482 c 0
 211.960998535 528 205.490844086 615.455349775 223.9609375 644 c 0
 267.960998535 712 321.983215332 714.600036621 373.703125 722.490234375 c 0
 432.602241716 731.475665351 463.181331808 754.285036262 478.291992188 780.930664062 c 0
 493.983215332 808.600036621 504.16796875 828.456054688 469.983398438 830.599609375 c 0
 444.505859375 832.197265625 386.853515625 812.896484375 320.607421875 813.6640625 c 0
 232.887695312 814.682617188 134 774.600585938 106 686.599609375 c 0
 82.3603515625 612.302734375 117.46484375 437.0703125 161.9609375 390 c 0
 210.822265625 338.3125 349.098632812 362.900390625 395.9609375 352 c 0
 475.921875 333.400390625 451.098632812 199.078125 377.9609375 158 c 0
 284.875 105.71875 120 102.600036621 106 22.599609375 c 0
EndSplineSet
EndChar

StartChar: L
Encoding: 76 76 49
Width: 679
VWidth: 0
Flags: W
HStem: 0 122<217.961 414.388>
VStem: 125.188 92.7734<209.559 344.234>
LayerCount: 2
UndoRedoHistory
Layer: 1
Undoes
EndUndoes
Redoes
EndRedoes
EndUndoRedoHistory
Fore
SplineSet
178.1875 800 m 0
 75.1953125 887.205078125 135.1875 522 125.1875 412 c 0
 105.040039062 190.388671875 63.1884765625 0 125.1875 0 c 0
 215.823242188 0 347.111328125 -8.9345703125 448.694335938 14.84375 c 0
 531.948242188 34.33203125 626.830078125 70.181640625 590.821289062 128.348632812 c 0
 557.93359375 181.474609375 492.159179688 138.919921875 401.71484375 124.150390625 c 0
 341.0078125 114.237304688 273.864257812 124.430664062 217.9609375 122 c 1
 221.1875 266 315.1875 684 178.1875 800 c 0
EndSplineSet
EndChar

StartChar: O
Encoding: 79 79 50
Width: 698
VWidth: 0
Flags: W
LayerCount: 2
Fore
SplineSet
212.702148438 345.880859375 m 4
 229.250976562 212.212890625 324.500976562 116.181640625 413.247070312 127.168945312 c 0
 501.993164062 138.157226562 519.9296875 188.541992188 515.369140625 323.15234375 c 0
 510.814453125 457.612304688 383.03125 711.2109375 294.284179688 700.22265625 c 0
 205.538085938 689.235351562 187.8828125 546.349609375 212.702148438 345.880859375 c 4
77.5888671875 370.337890625 m 0
 48.966796875 601.517578125 115.424804688 799.381835938 281.9609375 820 c 0
 448.498046875 840.619140625 613.36907959 589.152038574 629.369140625 359.15234375 c 0
 645.534941897 126.770145273 595.953125 23.4013671875 429.416992188 2.783203125 c 0
 262.880859375 -17.8359375 106.2109375 139.159179688 77.5888671875 370.337890625 c 0
EndSplineSet
EndChar

StartChar: A
Encoding: 65 65 51
Width: 699
VWidth: 0
Flags: W
LayerCount: 2
Fore
SplineSet
578.758789062 411.323242188 m 24
 607.073242188 424.48046875 589.4765625 491.161132812 558.348632812 488.733398438 c 24
 413.294921875 477.423828125 332.865234375 443.177734375 200.920898438 381.862304688 c 24
 177.920898438 371.173828125 151.6484375 313.763671875 190.30859375 317.703125 c 0
 350.4921875 334.022460938 437.438476562 345.651367188 578.758789062 411.323242188 c 24
540 567.295898438 m 24
 505.903320312 685.477539062 468.901855469 822 354 822 c 0
 268 822 257.859326312 664.693375631 220.90234375 554 c 24
 152.365234375 348.71875 -63.0833835267 13.9446357073 84.90234375 16 c 0
 228.901855469 18 348.064453125 591.19921875 384.90234375 644 c 1
 438.90234375 580 492.90234375 248 500.90234375 146 c 0
 508.828125 44.9326171875 489.108882323 8.2932390501 590 4 c 0
 684 0 601.136762834 355.389661156 540 567.295898438 c 24
EndSplineSet
EndChar

StartChar: one
Encoding: 49 49 52
Width: 416
VWidth: 0
Flags: W
VStem: 162.141 91.583<355.482 496.076>
LayerCount: 2
Fore
SplineSet
162.140625 342.030273438 m 4
 133.0703125 584.276367188 68.888671875 806.225585938 145.619140625 815.43359375 c 4
 222.348632812 824.640625 224.653320312 845.045898438 253.723632812 602.798828125 c 4
 282.79296875 360.552734375 300 0 255.629882812 -5.3916015625 c 4
 178.913085938 -14.7138671875 191.209960938 99.783203125 162.140625 342.030273438 c 4
EndSplineSet
EndChar

StartChar: four
Encoding: 52 52 53
Width: 652
VWidth: 0
Flags: W
LayerCount: 2
Fore
SplineSet
530.08984375 -2.701171875 m 1
 574.616210938 1.1875 539.60546875 362.3046875 518.739257812 605.39453125 c 0
 497.873046875 848.486328125 494.879882812 828.170898438 417.8828125 821.561523438 c 0
 353.703125 816.052734375 392.978515625 674.162109375 416.38671875 481.41796875 c 1
 317.705078125 437.571289062 279.516601562 344.1171875 214 414.219726562 c 0
 194.6875 434.884765625 203.53125 817.802734375 153.559570312 819.4921875 c 0
 15.638671875 824.15625 84.166015625 618.202148438 105.033203125 375.111328125 c 0
 119.76171875 203.518554688 306.241210938 248.122070312 427.782226562 341.955078125 c 1
 450.184570312 235.13671875 431.537109375 -17.37890625 530.08984375 -2.701171875 c 1
EndSplineSet
EndChar

StartChar: colon
Encoding: 58 58 54
Width: 224
VWidth: 0
Flags: W
HStem: 77.9434 88.0566<65.623 168.934> 372.4 89<67.648 167.971>
VStem: 54.7334 121<86.6884 154.65 380.311 447.973>
LayerCount: 2
Fore
SplineSet
54.4755859375 120.028320312 m 0
 57.8427734375 146.817382812 87.9990234375 170.239257812 121.733398438 166 c 0
 155.467773438 161.759765625 180.018554688 148.595703125 176.651367188 121.806640625 c 0
 173.284179688 95.0166015625 158.265625 79.7705078125 108.650390625 77.943359375 c 0
 75.28515625 77.09765625 51.109375 93.23828125 54.4755859375 120.028320312 c 0
54.7333984375 407.400390625 m 0
 54.7333984375 434.400390625 81.7333984375 461.400390625 115.733398438 461.400390625 c 0
 149.733398438 461.400390625 175.733398438 451.400390625 175.733398438 424.400390625 c 0
 175.733398438 397.400390625 162.733398438 370.799804688 113.733398438 372.400390625 c 0
 80.375 373.489257812 54.7333984375 380.400390625 54.7333984375 407.400390625 c 0
EndSplineSet
EndChar

StartChar: T
Encoding: 84 84 55
Width: 635
VWidth: 0
Flags: W
VStem: 327.369 116<175.32 457.945>
LayerCount: 2
Fore
SplineSet
456.890625 705.0078125 m 4
 394.666015625 702.159179688 284.015625 692.125 225.076171875 675.090820312 c 4
 166.13671875 658.056640625 -11.1474609375 662.6484375 42.0986328125 745.055664062 c 4
 60.546875 773.15625 199.9765625 778.09375 419.369140625 800 c 4
 645.803710938 822.549804688 731.186523438 885.302734375 635 746 c 4
 615.553710938 717.94921875 676.724609375 715.876953125 456.890625 705.0078125 c 4
327.369140625 336 m 4
 319.467773438 397.786132812 304.73828125 524 284.73828125 582 c 4
 264.73828125 640 274.369140625 817 359.369140625 768 c 4
 388.369140625 751 410.369140625 524 443.369140625 306 c 4
 477.369140625 81 533.369140625 -110 367.369140625 -2 c 4
 338.758789062 16.61328125 343.73828125 208 327.369140625 336 c 4
EndSplineSet
EndChar

StartChar: semicolon
Encoding: 59 59 56
Width: 212
VWidth: 0
Flags: W
HStem: 340 86<94.121 199.304>
VStem: 70.2031 68.1973<-137.181 1.83781> 85.7334 116<351.656 422.577>
LayerCount: 2
Fore
SplineSet
85.7333984375 386 m 0xa0
 85.7333984375 424.639648438 102.405273438 426 137.733398438 426 c 0
 173.061523438 426 201.733398438 426.639648438 201.733398438 388 c 0
 201.733398438 349.360351562 203.061523438 340 167.733398438 340 c 0
 132.405273438 340 85.7333984375 347.360351562 85.7333984375 386 c 0xa0
70.203125 -39.7529296875 m 1xc0
 75.451171875 21.4228515625 90.748046875 101.989257812 142.221679688 58.9140625 c 1
 185.134765625 44.1015625 158.747070312 -0.548828125 138.400390625 -60.70703125 c 0
 118.053710938 -120.866210938 125.435546875 -149.909179688 98.787109375 -140.430664062 c 0
 72.138671875 -130.952148438 63.193359375 -99.5517578125 70.203125 -39.7529296875 c 1xc0
EndSplineSet
EndChar

StartChar: C
Encoding: 67 67 57
Width: 485
VWidth: 0
Flags: W
HStem: 720 104<279.905 391.547>
VStem: 32.7461 119<220.252 518.543>
LayerCount: 2
Fore
SplineSet
453.421875 159.314453125 m 24
 451.205078125 232.90625 363.74609375 74 271.74609375 108 c 0
 217.896484375 127.901367188 143.033203125 200.3671875 151.74609375 400 c 0
 159.74609375 583.295898438 268.337890625 720 325.74609375 720 c 0
 350.950195312 720 363.376953125 730.599609375 407.376953125 688.599609375 c 1
 503.74609375 754 389.74609375 826 299.74609375 824 c 0
 157.78125 820.845703125 32.74609375 596.28125 32.74609375 353.400390625 c 0
 32.74609375 110.520507812 172.705078125 -12.552734375 275.376953125 -12.552734375 c 0
 378.048828125 -12.552734375 456.327148438 62.84765625 453.421875 159.314453125 c 24
EndSplineSet
EndChar

StartChar: backslash
Encoding: 92 92 58
Width: 413
VWidth: 0
Flags: W
VStem: 276.63 85.4316<29.6866 127.122>
LayerCount: 2
Fore
SplineSet
167.7109375 718.170898438 m 16
 182.400390625 643.614257812 186.916015625 634.471679688 265.294921875 412.23828125 c 0
 313.866210938 274.51953125 374.009765625 122.577148438 362.061523438 47.6669921875 c 0
 353.215820312 -7.787109375 274.852539062 -0.8955078125 276.629882812 13.294921875 c 0
 281.630859375 53.232421875 247.43359375 162.22265625 170.323242188 380.86328125 c 0
 93.212890625 599.50390625 37.28515625 739.697265625 50 786 c 8
 64.03125 837.090820312 157.469726562 770.155273438 167.7109375 718.170898438 c 16
EndSplineSet
EndChar

StartChar: B
Encoding: 66 66 59
Width: 582
VWidth: 0
Flags: W
VStem: 119.765 102.219<120.03 233.713>
LayerCount: 2
Fore
SplineSet
221.983398438 124.599609375 m 0
 220.395507812 163.596679688 204.62109375 216.215820312 245.983398438 234.599609375 c 0
 299.983398438 258.600585938 350.350585938 286.029296875 375.983398438 256.599609375 c 0
 401.6171875 227.169921875 378.115234375 186.328125 343.983398438 156.599609375 c 0
 309.8515625 126.870117188 224.70703125 57.6806640625 221.983398438 124.599609375 c 0
377.983398438 360.599609375 m 1
 476.44921875 467.952148438 568.388671875 745.21484375 421.983398438 804.599609375 c 0
 305.090820312 852.014648438 165.560546875 761.536132812 141.963867188 753.278320312 c 0
 89.77734375 736.497070312 125.31640625 802.41015625 80.654296875 756.987304688 c 0
 32.26171875 706.359375 104.590820312 523.38671875 119.764648438 388 c 0
 140.788085938 198.846679688 83.1162566458 -8.09997636369 183.983398438 0 c 0
 315.983215332 10.6000366211 361.983215332 20.6000366211 465.983398438 120.599609375 c 0
 526.893010485 179.166190697 502.560546875 315.118164062 377.983398438 360.599609375 c 1
183.983398438 626.599609375 m 4
 253.983398438 714.600585938 334.213867188 710.782226562 357.983398438 710.599609375 c 4
 424.102539062 710.092773438 405.983398438 600.600585938 355.983398438 494.599609375 c 0
 304.041015625 384.481445312 285.983398438 414.600585938 215.983398438 364.599609375 c 1
 221.983398438 414.600585938 161.7109375 598.600585938 183.983398438 626.599609375 c 4
EndSplineSet
EndChar

StartChar: P
Encoding: 80 80 60
Width: 572
VWidth: 0
Flags: HW
VStem: 115.869 109.02<354.945 577.058>
LayerCount: 2
Fore
SplineSet
121.9609375 716 m 0
 179.9609375 764 148.9609375 690 201.9609375 704 c 0
 225.9609375 711 279.9609375 810 405.9609375 816 c 0
 463.9609375 819 543.960998535 766 511.9609375 567.295898438 c 0
 479.964559528 368.614666821 367.960998535 156 267.9609375 172 c 0
 180.926012131 185.925579559 306.065995936 -11.8140031515 194.888671875 0 c 0
 81.9609985352 12 120.9609375 200 109.9609375 390 c 0
 101.9609375 526 68.005859375 671.34765625 121.9609375 716 c 0
247.9609375 534 m 0
 199.4140625 418.188476562 219.041992188 325.244140625 237.9609375 282 c 0
 251.9609375 250 342.416992188 370.403320312 373.9609375 488 c 0
 405.9609375 607.295898438 411.696289062 705.283203125 387.9609375 704 c 0
 313.9609375 700 295.033203125 646.293945312 247.9609375 534 c 0
EndSplineSet
EndChar

StartChar: R
Encoding: 82 82 61
Width: 696
VWidth: 0
Flags: W
VStem: 81.0576 512<248 619>
LayerCount: 2
Fore
SplineSet
324.057617188 563 m 0
 272.765625 477.903320312 229.092773438 367.828125 247.057617188 357 c 0
 265.022460938 346.171875 368.765625 406.90234375 420.057617188 492 c 1
 471.048828125 576.568359375 459.9453125 682.32421875 439.057617188 688 c 1
 421.092773438 698.828125 375.349609375 648.09765625 324.057617188 563 c 0
577.115234375 183.981445312 m 0
 647.1953125 198.631835938 606.94921875 5.50390625 531.02734375 20.822265625 c 0
 424.606445312 42.29296875 309.057617188 206 222.057617188 175 c 1
 166.100585938 132.779296875 305.057617188 0 180.057617188 0 c 0
 56.1748046875 0 82.9375 123.932617188 81.0576171875 248 c 4
 80.0576171875 314 92.8198768743 373.070391079 107.057617188 452 c 28
 133.01953125 595.923828125 54.9443359375 819 184.057617188 819 c 0
 253.057617188 819 217.057617188 711 238.057617188 681 c 1
 305.057617188 735 369.219751272 836.309711794 474.057617188 818 c 24
 563.13671875 802.442382812 593.057617188 709.427734375 593.057617188 619 c 27
 593.057617188 463.780273438 450.115234375 342.981445312 369.115234375 289.981445312 c 1
 453.115234375 237.981445312 518.909179688 171.8125 577.115234375 183.981445312 c 0
EndSplineSet
EndChar

StartChar: N
Encoding: 78 78 62
Width: 786
VWidth: 0
Flags: W
VStem: 110 118<246.57 525.757> 592 96<205.805 459.973>
LayerCount: 2
Back
Fore
SplineSet
110 772 m 0
 242 870 458 286 592 204 c 1
 610 330 492 840 638 828 c 0
 720.01953125 821.258789062 668.615234375 631.817382812 688 404 c 1
 694.043192732 237.562551861 739.350439697 -22.2569888917 660 0 c 1
 448 74 344 406 228 528 c 1
 222 324 280 16 166 34 c 0
 74.1646008309 48.5003261846 123.361328125 229.642578125 110 434 c 0
 101.490234375 564.157226562 15.1369516986 701.571373231 110 772 c 0
EndSplineSet
EndChar

StartChar: V
Encoding: 86 86 63
Width: 514
VWidth: 0
Flags: W
LayerCount: 2
Fore
SplineSet
282.715820312 158.200195312 m 0
 342.715820312 108.200195312 322.071289062 553.200195312 344.071289062 661.200195312 c 0
 362.071289062 750.200195312 382.071289062 819.200195312 479.071289062 819.200195312 c 0
 528.071289062 819.200195312 565.071289062 721.200195312 486.071289062 738.200195312 c 1
 441.071289062 687.200195312 436.715820312 580.200195312 432.715820312 525.200195312 c 0
 423.715820312 401.200195312 436.715820312 22.2001953125 299.715820312 14.2001953125 c 0
 232.7109375 10.287109375 166.779296875 104.90625 142.715820312 195.200195312 c 16
 105.1015625 336.342773438 77.4091796875 534.206054688 69.142578125 666.400390625 c 0
 66.244140625 712.74609375 16.7158203125 619.200195312 -3.2841796875 677.200195312 c 0
 -9.3515625 694.793945312 62.7158203125 833.200195312 115.715820312 815.200195312 c 0
 185.309570312 791.564453125 168.809570312 253.122070312 282.715820312 158.200195312 c 0
EndSplineSet
EndChar

StartChar: quotedbl
Encoding: 34 34 64
Width: 335
VWidth: 0
Flags: W
HStem: 576 250 590 21G<210.645 242.145>
VStem: 63 86<614.888 793.75> 203.645 77<615.447 809.501>
LayerCount: 2
Fore
SplineSet
203.64453125 713 m 0x70
 203.64453125 791 170.64453125 826 210.64453125 826 c 3xb0
 257.64453125 826 280.64453125 802 280.64453125 724 c 3
 280.64453125 646 253.64453125 590 230.64453125 590 c 0
 190.64453125 590 203.64453125 635 203.64453125 713 c 0x70
63 699 m 0
 63 777 30 812 70 812 c 3
 117 812 149 795 149 717 c 3
 149 639 113 576 90 576 c 0
 50 576 63 621 63 699 c 0
EndSplineSet
EndChar

StartChar: Z
Encoding: 90 90 65
Width: 660
VWidth: 0
Flags: W
HStem: -208 104<237.136 379.366>
LayerCount: 2
Fore
SplineSet
74.9833984375 513 m 24
 158.060546875 648.10546875 195.59247976 821.091480421 343.983398438 818 c 0
 535.983215332 814 455.983398438 498 411.983398438 358 c 1
 565.983398438 356.56640625 583.983398438 267.43359375 581.983398438 137.43359375 c 0
 579.310546875 -36.322265625 473.983215332 -212 325.983398438 -208 c 0
 202.967281919 -204.675235981 115.983215332 -110 147.983398438 0 c 0
 171.09371449 79.441256863 184.124023438 -101.966796875 297.983398438 -104 c 0
 409.983398438 -106 451.22265625 -18.7568359375 475.983398438 86 c 0
 501.983398438 196 479.984375 301.43359375 323.983398438 269.43359375 c 0
 223.65234375 248.852539062 424.193629212 641.73813207 345.983398438 695.43359375 c 0
 283.983215332 738 237.360315893 557.513724861 145.983398438 496 c 24
 122.364257812 480.099609375 60.0694591763 488.746017969 74.9833984375 513 c 24
EndSplineSet
EndChar

StartChar: slash
Encoding: 47 47 66
Width: 455
VWidth: 0
Flags: W
VStem: 73.1631 85.4316<36.4767 133.912>
LayerCount: 2
Fore
SplineSet
267.513671875 724.9609375 m 16
 252.82421875 650.404296875 248.30859375 641.26171875 169.9296875 419.028320312 c 0
 121.358398438 281.309570312 61.21484375 129.3671875 73.1630859375 54.45703125 c 0
 82.0087890625 -0.9970703125 160.372070312 5.89453125 158.594726562 20.0849609375 c 0
 153.59375 60.0224609375 187.791015625 169.012695312 264.901367188 387.653320312 c 0
 342.01171875 606.293945312 397.939453125 746.487304688 385.224609375 792.790039062 c 8
 371.193359375 843.880859375 277.754882812 776.9453125 267.513671875 724.9609375 c 16
EndSplineSet
EndChar

StartChar: Y
Encoding: 89 89 67
Width: 590
VWidth: 0
Flags: W
LayerCount: 2
Fore
SplineSet
334 1 m 0
 462 1 469.178526845 177.870148593 492.057617188 311.981445312 c 28
 525.52734375 508.170898438 536.057617188 811.981445312 474.057617188 821.981445312 c 0
 332.609375 844.795898438 438 548 393 442 c 1
 312 482 230 742 90 698 c 0
 5.3232421875 671.387695312 170.184788201 560.017716976 225 474 c 24
 271.622070312 400.83984375 336 349 350 290 c 0
 376.0625 180.166992188 253.7421875 1 334 1 c 0
EndSplineSet
EndChar

StartChar: K
Encoding: 75 75 68
Width: 596
VWidth: 0
Flags: W
LayerCount: 2
UndoRedoHistory
Layer: 1
Undoes
EndUndoes
Redoes
EndRedoes
EndUndoRedoHistory
Fore
SplineSet
219.942382812 500 m 1
 291.931640625 588.06640625 314.220703125 805.477539062 475.942382812 821 c 1
 567.102539062 827.38671875 246.708984375 424.69921875 255.942382812 345 c 1
 248.884765625 297 591.884765625 338 491.942382812 223 c 0
 421.53125 141.98046875 269.942382812 252 223.942382812 198 c 1
 198.419067383 110 279.911132812 0.04296875 186.942382812 -2 c 4
 50.4189453125 -5 111.902597019 263.49708622 100.942382812 438 c 24
 91.4443359375 589.215820312 26.9423828125 806 135 825 c 0
 235.817382812 842.7265625 157.942382812 526 219.942382812 500 c 1
EndSplineSet
EndChar

StartChar: M
Encoding: 77 77 69
Width: 1024
VWidth: 0
Flags: W
LayerCount: 2
Fore
SplineSet
364 672 m 0
 562.432642121 698.239027057 375.736366737 59.3522510933 541.791015625 31.6767578125 c 0
 589.790771484 23.6768798828 605.618164062 95.328125 589.791015625 207.676757812 c 0
 568.002929688 362.336914062 561.913691985 643.355361287 738 670 c 0
 892.447308175 693.370316369 703.479492188 56.6875 891 14 c 0
 1014 -14 932 40.72265625 932 208 c 0
 932 301.594726562 947.538789924 500.040392494 916 616 c 0
 887.220563878 721.814209262 831.497172438 795.908506799 748 794 c 0
 660.755859375 792.005859375 589 724 535 724 c 0
 464.677734375 724 474 790 368 792 c 0
 302.154296875 793.2421875 290.188504623 733.820689739 234 738 c 24
 183.517578125 741.754882812 194 810 126 810 c 0
 85.1630859375 810 72 784 82 726 c 0
 113.367274232 544.069809456 119.53515625 432.038085938 118 254 c 0
 116 22 51.4738871351 -14.06632678 188 0 c 0
 353 17 122 640 364 672 c 0
EndSplineSet
EndChar

StartChar: J
Encoding: 74 74 70
Width: 558
VWidth: 0
Flags: W
LayerCount: 2
Fore
SplineSet
392.8125 14 m 0
 308.997070312 -19.5263671875 142.62763747 -2.26219864702 97 164 c 0
 66.8125 274 234.41015625 111.546875 314.8125 130 c 0
 436.8125 158 293.395507812 387.88671875 242.8125 598 c 0
 229.8125 652 125.521484375 573.157226562 66.8125 620 c 0
 -27.1875 695 159.954101562 688.5390625 195.8125 731 c 0
 223.900390625 764.259765625 192 815 288 821 c 0
 366.549804688 825.909179688 342.901367188 694.216796875 355.8125 608 c 16
 374.530273438 483.009765625 472.388671875 317.084960938 486.8125 194 c 4
 499.109375 89.0625 452.8125 38 392.8125 14 c 0
EndSplineSet
EndChar

StartChar: U
Encoding: 85 85 71
Width: 658
VWidth: 0
Flags: W
HStem: 0 754<110 296>
VStem: 94 96<170.758 476.42> 106 106<295.025 694.017> 394 102<273.426 518.928>
LayerCount: 2
Fore
SplineSet
496 258 m 0xd0
 507.94140625 386.970703125 558 828 410 824 c 0
 341.907226562 822.159179688 394 694.704101562 394 514 c 0
 394 370.10546875 369.172851562 81.7607421875 256 122 c 0
 225.094726562 132.98828125 190.724609375 183.6640625 190 282 c 0xd0
 189.391601562 364.469726562 213.09765625 479.44921875 212 567.295898438 c 0
 210.595703125 679.737304688 178.5625 756.211914062 110 754 c 0
 71.482421875 752.7578125 108.149072023 640.095713223 106 567.295898438 c 24xb0
 101.909179688 428.711914062 94 336 94 212 c 0
 94 80.64453125 183.3984375 0 296 0 c 0
 396 0 408 38 432 104 c 1
 484 58 414 0 566 0 c 0
 610 0 486 150 496 258 c 0xd0
EndSplineSet
EndChar

StartChar: X
Encoding: 88 88 72
Width: 638
VWidth: 0
Flags: W
LayerCount: 2
Fore
SplineSet
180 828 m 0
 86 828 196.05859375 635.318359375 208 578 c 0
 238 434 276.3515625 335.965820312 320 220 c 0
 378.069335938 65.7197265625 414.612304688 20.283203125 458 18 c 0
 564.022460938 12.419921875 438 174 384 342 c 0
 354.916992188 432.479492188 325.044921875 515.891601562 306 604 c 0
 281.1328125 719.045898438 263.8125 828 180 828 c 0
88.193359375 78.015625 m 0
 70.8154296875 39.0634765625 107.038085938 -12.4228515625 149.690429688 -12.4228515625 c 0
 230 -12.4228515625 161.194335938 38.5068359375 238 140 c 0
 294 214 382.518554688 326.619140625 440 422 c 0
 522.463867188 558.833984375 650 718 558 722 c 0
 486.814400955 725.095026045 401.354492188 568.700195312 346 460 c 1
 294 452 282.175308876 393.368552422 246 340 c 8
 179.075195312 241.266601562 156 230 88.193359375 78.015625 c 0
EndSplineSet
EndChar

StartChar: Q
Encoding: 81 81 73
Width: 810
VWidth: 0
Flags: HW
LayerCount: 2
Fore
SplineSet
336.778320312 318.143554688 m 28
 358.453125 349.021484375 425.46875 376.229492188 457.9609375 350 c 28
 540.693359375 283.213867188 536.421875 223.37890625 560.068359375 137.891601562 c 28
 581.088867188 61.90234375 670.6328125 -81.6875 571.4140625 -60.1533203125 c 4
 400.232421875 -23.0029296875 459.424804688 127.427734375 385.44921875 246.697265625 c 28
 367.904296875 274.984375 317.323242188 290.427734375 336.778320312 318.143554688 c 28
235.9609375 364 m 0
 235.9609375 210.543945312 247.848632812 126 333.9609375 126 c 0
 420.073242188 126 511 249.544 511 403 c 0
 511 556.456 424.073242188 662 337.9609375 662 c 0
 251.848632812 662 235.9609375 517.456054688 235.9609375 364 c 0
113.9609375 358 m 0
 113.9609375 584.872070312 165.065429688 800 301.9609375 800 c 0
 438.857421875 800 625.9609375 626.872070312 625.9609375 400 c 0
 625.9609375 173.127929688 462.857421875 -8 325.9609375 -8 c 0
 189.065429688 -8 113.9609375 131.127929688 113.9609375 358 c 0
EndSplineSet
EndChar

StartChar: D
Encoding: 68 68 74
Width: 624
VWidth: 0
Flags: W
LayerCount: 2
Fore
SplineSet
243.983398438 454.599609375 m 0
 191.68359375 303.3046875 240.5078125 158.862304688 275.983398438 146.599609375 c 0
 311.459960938 134.3359375 379.68359375 227.303710938 431.983398438 378.599609375 c 0
 484.283203125 529.89453125 481.8359375 712.133789062 446.360351562 724.396484375 c 0
 410.883789062 736.66015625 296.283203125 605.895507812 243.983398438 454.599609375 c 0
203.983398438 608.599609375 m 0
 251.53125 827.610351562 428.147460938 835.932617188 507.983398438 818.599609375 c 0
 587.8203125 801.266601562 611.983398438 567.295898438 549.983398438 356.599609375 c 0
 486.717773438 141.603515625 341.8203125 -8.732421875 261.983398438 8.599609375 c 0
 198.380859375 22.408203125 87.9833984375 70.6005859375 87.9833984375 282.599609375 c 0
 87.9833984375 372.600585938 110.1171875 470.006835938 101.983398438 576.599609375 c 0
 95.158203125 666.03515625 25.9833984375 746.599609375 89.9833984375 746.599609375 c 0
 221.983398438 746.599609375 200.444335938 592.302734375 203.983398438 608.599609375 c 0
EndSplineSet
EndChar
